<svg height="40" version="1.1" viewBox="8 8 24 24" width="40" xmlns="http://www.w3.org/2000/svg">
<g fill="none" fill-rule="evenodd" stroke="none" stroke-width="40">

<g fill="#000" transform="translate(11 8.75)">
<path d="M9.18621657,0.989292958 C14.0870925,0.989292958 18.0570895,4.97497152 18.0570895,9.88794885 C18.0570895,11.1518709 17.5451493,12.733703 16.6489103,14.512324 L16.4645763,14.8706362 L16.2780964,15.2186234 L15.9558785,15.7917281 L15.622112,16.3535173 L15.4433187,16.6426557 L15.0923786,17.1896667 L14.9026608,17.4744845 L14.5377515,18.0032932 L14.3415342,18.2773401 L13.9596638,18.791614 L13.5860483,19.2707725 C11.9465575,21.320545 10.5222759,22.535665 9.18621657,22.535665 C8.00756759,22.535665 6.80007685,21.613972 5.39879565,20.0045315 L5.17590623,19.744728 L4.96727121,19.4939485 L4.58823319,19.0196511 L4.39650981,18.7703584 L4.20062499,18.5090385 L3.82273897,17.9862367 L3.45132846,17.4470927 L3.08864194,16.8945402 L2.74366473,16.3426327 L2.56601879,16.0469209 L2.23529911,15.4734416 L1.92151066,14.8963989 L1.6367433,14.3383342 C0.794949898,12.6299944 0.315343648,11.114251 0.315343648,9.88794885 C0.315343648,4.97497152 4.28534065,0.989292958 9.18621657,0.989292958 Z M9.18621657,7.11622338 C7.67077897,7.11622338 6.44227407,8.34472829 6.44227407,9.86016588 C6.44227407,11.3756035 7.67077897,12.6041084 9.18621657,12.6041084 C10.7016542,12.6041084 11.9301591,11.3756035 11.9301591,9.86016588 C11.9301591,8.34472829 10.7016542,7.11622338 9.18621657,7.11622338 Z"></path>
<path d="M9.18621657,0.989292958 C14.0870925,0.989292958 18.0570895,4.97497152 18.0570895,9.88794885 C18.0570895,11.1518709 17.5451493,12.733703 16.6489103,14.512324 L16.4645763,14.8706362 L16.2780964,15.2186234 L15.9558785,15.7917281 L15.622112,16.3535173 L15.4433187,16.6426557 L15.0923786,17.1896667 L14.9026608,17.4744845 L14.5377515,18.0032932 L14.3415342,18.2773401 L13.9596638,18.791614 L13.5860483,19.2707725 C11.9465575,21.320545 10.5222759,22.535665 9.18621657,22.535665 C8.00756759,22.535665 6.80007685,21.613972 5.39879565,20.0045315 L5.17590623,19.744728 L4.96727121,19.4939485 L4.58823319,19.0196511 L4.39650981,18.7703584 L4.20062499,18.5090385 L3.82273897,17.9862367 L3.45132846,17.4470927 L3.08864194,16.8945402 L2.74366473,16.3426327 L2.56601879,16.0469209 L2.23529911,15.4734416 L1.92151066,14.8963989 L1.6367433,14.3383342 C0.794949898,12.6299944 0.315343648,11.114251 0.315343648,9.88794885 C0.315343648,4.97497152 4.28534065,0.989292958 9.18621657,0.989292958 Z M9.18621657,7.11622338 C7.67077897,7.11622338 6.44227407,8.34472829 6.44227407,9.86016588 C6.44227407,11.3756035 7.67077897,12.6041084 9.18621657,12.6041084 C10.7016542,12.6041084 11.9301591,11.3756035 11.9301591,9.86016588 C11.9301591,8.34472829 10.7016542,7.11622338 9.18621657,7.11622338 Z"></path>
</g>
</g>
</svg>
