<svg xmlns="http://www.w3.org/2000/svg" xmlns:xlink="http://www.w3.org/1999/xlink" width="24px" height="24px" viewBox="0 0 24 24" version="1.1">
    <title>ic_right_arrow_filled</title>
    <g id="ic_right_arrow_filled" stroke="none" stroke-width="1" fill="none" fill-rule="evenodd">
        <g id="编组">
            <rect id="矩形" fill="#D8D8D8" opacity="0" x="0" y="0" width="24" height="24"></rect>
            <path d="M8.060625,21.500125 C7.804625,21.500125 7.548625,21.402125 7.353625,21.207125 C6.962625,20.816125 6.962625,20.184125 7.353625,19.793125 L14.792625,12.354125 C14.920625,12.226125 14.939625,12.077125 14.939625,12.000125 C14.939625,11.923125 14.920625,11.774125 14.793625,11.647125 L7.353625,4.207125 C6.962625,3.816125 6.962625,3.184125 7.353625,2.793125 C7.744625,2.402125 8.376625,2.402125 8.767625,2.793125 L16.206625,10.232125 C16.679625,10.703125 16.939625,11.331125 16.939625,12.000125 C16.939625,12.668125 16.679625,13.295125 16.206625,13.768125 L8.767625,21.207125 C8.572625,21.402125 8.316625,21.500125 8.060625,21.500125" id="Fill-1" fill="#191919"></path>
        </g>
    </g>
</svg>